<svg width="18" height="18" viewBox="0 0 18 18" fill="none" xmlns="http://www.w3.org/2000/svg">
<path d="M16.0714 0H1.92857C0.863839 0 0 0.839844 0 1.875V15.625C0 16.6602 0.863839 17.5 1.92857 17.5H16.0714C17.1362 17.5 18 16.6602 18 15.625V1.875C18 0.839844 17.1362 0 16.0714 0ZM15.4205 5.84375C15.3643 7.05859 14.4884 8.72656 12.7969 10.8398C11.0491 13.0469 9.57054 14.1523 8.36116 14.1523C7.60982 14.1523 6.97902 13.4805 6.46071 12.1367C5.44821 8.53125 5.0183 6.41797 4.18259 6.41797C4.08616 6.41797 3.74866 6.61328 3.17411 7.00781L2.57143 6.25C4.05402 4.98438 5.4683 3.57812 6.35223 3.5C7.35268 3.40625 7.96741 4.07031 8.20045 5.49609C9.02411 10.5586 9.38973 11.3242 10.8844 9.03125C11.4228 8.20312 11.7121 7.57812 11.7482 7.14453C11.8848 5.86328 10.7196 5.94922 9.93214 6.27734C10.5629 4.26562 11.7723 3.28906 13.5522 3.34375C14.8741 3.38281 15.4969 4.21875 15.4205 5.84375Z" fill="white"/>
</svg>
